HIERARCHY
ROOT Hips
{
	OFFSET 0.000000 0.000000 0.000000
	CHANNELS 6 Xposition Yposition Zposition Zrotation Yrotation Xrotation 
	JOINT LHipJoint
	{
		OFFSET 0.000000 0.000000 0.000000
		CHANNELS 3 Zrotation Yrotation Xrotation
		JOINT LeftUpLeg
		{
			OFFSET 1.363060 -1.794630 0.839290
			CHANNELS 3 Zrotation Yrotation Xrotation
			JOINT LeftLeg
			{
				OFFSET 2.448110 -6.726130 0.000000
				CHANNELS 3 Zrotation Yrotation Xrotation
				JOINT LeftFoot
				{
					OFFSET 2.562200 -7.039590 0.000000
					CHANNELS 3 Zrotation Yrotation Xrotation
					JOINT LeftToeBase
					{
						OFFSET 0.157640 -0.433110 2.322550
						CHANNELS 3 Zrotation Yrotation Xrotation
						End Site
						{
							OFFSET 0.000000 0.000000 0.000000
						}
					}
				}
			}
		}
	}
	JOINT RHipJoint
	{
		OFFSET 0.000000 0.000000 0.000000
		CHANNELS 3 Zrotation Yrotation Xrotation
		JOINT RightUpLeg
		{
			OFFSET -1.305520 -1.794630 0.839290
			CHANNELS 3 Zrotation Yrotation Xrotation
			JOINT RightLeg
			{
				OFFSET -2.542530 -6.985550 0.000000
				CHANNELS 3 Zrotation Yrotation Xrotation
				JOINT RightFoot
				{
					OFFSET -2.568260 -7.056230 0.000000
					CHANNELS 3 Zrotation Yrotation Xrotation
					JOINT RightToeBase
					{
						OFFSET -0.164730 -0.452590 2.363150
						CHANNELS 3 Zrotation Yrotation Xrotation
						End Site
						{
							OFFSET 0.000000 0.000000 0.000000
						}
					}
				}
			}
		}
	}
}
MOTION
Frames: 30
Frame Time: 0.008333
-9.162484 16.927339 -1.397259 168.744555 86.255467 178.358151 -9.141479 1.691879 5.930384 -15.982776 -9.551934 -30.386285 -3.070477 -0.206346 12.728221 -0.493554 -4.089939 0.871789 -0.260500 0.000000 -18.633200 10.640978 -4.799885 -0.893168 5.219223 -16.733910 -0.619443 0.447095 -2.631368 35.014544 0.220949 17.975044 26.209576 9.684500 -0.000000 -84.692800
-8.991759 16.933040 -1.387015 163.803133 85.992179 173.320161 -9.014261 1.798988 5.913658 -16.493135 -9.810451 -29.929902 -3.082859 -0.122170 13.554945 -0.454761 -3.863575 0.602747 -0.220700 0.000000 -16.705701 10.901342 -4.628870 -0.950514 4.564005 -16.891611 -1.876565 0.192703 -2.698842 37.770328 0.004248 17.703160 28.168752 10.144900 -0.000001 -81.985500
-8.826047 16.939339 -1.379789 159.958536 85.746259 169.379684 -8.911426 1.875339 5.881766 -16.938168 -10.031828 -29.409329 -3.092892 -0.057421 14.277327 -0.413381 -3.642297 0.194804 -0.178901 0.000000 -14.821800 11.112334 -4.451774 -1.018804 4.046322 -16.967141 -3.184821 -0.038786 -2.769779 40.573313 -0.220073 16.687276 29.761918 10.050900 0.000001 -78.861000
-8.665038 16.946405 -1.375786 156.941169 85.538808 166.259516 -8.832262 1.926497 5.835334 -17.318007 -10.214144 -28.816714 -3.099639 -0.010393 14.887741 -0.368293 -3.414889 -0.317351 -0.136500 -0.000000 -13.039000 11.279274 -4.269107 -1.100205 3.646744 -16.978116 -4.525591 -0.252728 -2.847663 43.391546 -0.452996 14.876706 30.907275 9.327200 -0.000000 -75.634001
-8.508177 16.954461 -1.375849 154.828089 85.389237 164.039968 -8.786923 1.954563 5.772576 -17.610280 -10.321897 -28.188150 -3.099314 0.023264 15.421402 -0.322731 -3.207930 -0.907144 -0.099299 0.000000 -11.435500 11.397586 -4.089296 -1.185794 3.393813 -16.912687 -5.892397 -0.452414 -2.935019 46.182855 -0.697129 12.271018 31.527988 7.965400 0.000001 -72.538600
-8.355190 16.963711 -1.378752 152.970420 85.298250 162.058629 -8.757580 1.968111 5.697350 -17.856612 -10.395025 -27.474390 -3.095945 0.042019 15.823808 -0.271463 -2.963395 -1.517304 -0.062401 0.000000 -10.037300 11.488061 -3.903222 -1.283088 3.202313 -16.799630 -7.258292 -0.642980 -3.031856 48.919006 -0.955685 8.998099 31.551514 6.075500 -0.000000 -69.600400
-8.205234 16.974434 -1.385704 151.733659 85.280261 160.698311 -8.760859 1.966731 5.609237 -18.017602 -10.382687 -26.751763 -3.083829 0.051712 16.160906 -0.221049 -2.734362 -2.132708 -0.032800 0.000000 -8.943200 11.539096 -3.725626 -1.373524 3.135146 -16.603993 -8.634689 -0.823241 -3.138905 51.553126 -1.227408 5.215611 30.923703 3.819300 -0.000000 -66.772500
-8.057802 16.986785 -1.396011 150.833253 85.332891 159.675455 -8.787946 1.955796 5.511908 -18.112244 -10.301371 -26.015485 -3.064805 0.052804 16.417241 -0.170505 -2.501244 -2.718210 -0.008600 -0.000001 -8.182400 11.561602 -3.555412 -1.454785 3.152247 -16.331153 -10.012744 -0.993307 -3.255037 54.050725 -1.508156 1.186263 29.625808 1.445300 -0.000000 -63.885600
-7.912291 17.000780 -1.409300 150.192948 85.453201 158.923980 -8.835684 1.938917 5.409613 -18.145703 -10.154668 -25.288141 -3.039455 0.046929 16.601993 -0.121269 -2.268395 -3.254361 0.010200 0.000000 -7.776800 11.560571 -3.396042 -1.518732 3.241427 -15.976060 -11.397587 -1.151154 -3.378144 56.376980 -1.789296 -2.805939 27.688667 -0.785900 -0.000001 -60.720300
-7.768707 17.016453 -1.424745 149.607307 85.632567 158.232951 -8.896340 1.918973 5.300663 -18.137666 -9.954147 -24.550766 -3.010395 0.034190 16.697523 -0.073100 -2.026940 -3.724545 0.024900 0.000001 -7.702400 11.544222 -3.245860 -1.565432 3.365552 -15.541757 -12.766632 -1.293946 -3.504865 58.489900 -2.060544 -6.499353 25.213645 -2.651600 -0.000001 -57.309099
-7.626380 17.033598 -1.441985 149.079139 85.862627 157.622783 -8.967974 1.898667 5.191258 -18.090551 -9.703464 -23.838911 -2.978867 0.016055 16.723728 -0.028543 -1.795486 -4.129372 0.035400 -0.000000 -7.932300 11.515032 -3.108290 -1.584382 3.523590 -15.025867 -14.141262 -1.417810 -3.630254 60.368234 -2.308026 -9.686857 22.328751 -4.006699 -0.000000 -53.470800
-7.485228 17.051947 -1.460176 148.448171 86.130006 156.932172 -9.044361 1.880018 5.081230 -18.022273 -9.413562 -23.141621 -2.947986 -0.007559 16.671624 0.011893 -1.576608 -4.469853 0.042600 0.000001 -8.396300 11.478263 -2.980577 -1.575426 3.688403 -14.438827 -15.511357 -1.518859 -3.749066 61.987086 -2.519174 -12.243144 19.202807 -4.804600 -0.000000 -49.328400
-7.345227 17.071138 -1.478655 147.578760 86.420099 156.024787 -9.121108 1.864577 4.970535 -17.947848 -9.091263 -22.451585 -2.920616 -0.036557 16.538209 0.047226 -1.378992 -4.753266 0.047100 -0.000000 -9.015200 11.436959 -2.859916 -1.539265 3.841044 -13.795773 -16.871509 -1.593573 -3.856535 63.331657 -2.682664 -14.118733 16.004243 -5.087000 -0.000001 -45.037700
-7.206275 17.090750 -1.496687 146.295999 86.717316 154.723963 -9.194375 1.853756 4.859390 -17.882669 -8.743852 -21.758202 -2.899548 -0.071073 16.318817 0.076782 -1.209743 -4.988512 0.049300 -0.000000 -9.698600 11.393101 -2.742669 -1.478444 3.965492 -13.116544 -18.215741 -1.639570 -3.948554 64.392178 -2.790870 -15.328414 12.894516 -4.959600 -0.000000 -40.883199
-7.068402 17.110380 -1.513783 144.414308 87.006842 152.839305 -9.261786 1.848548 4.746910 -17.839685 -8.374485 -21.048003 -2.887011 -0.111148 16.009319 0.099908 -1.076217 -5.184566 0.049600 0.000000 -10.361399 11.347420 -2.625274 -1.397682 4.050717 -12.424131 -19.536053 -1.656164 -4.022399 65.164194 -2.840289 -15.929184 10.009183 -4.556700 0.000000 -37.184200
-6.931584 17.129605 -1.529557 141.751365 87.275377 150.182811 -9.322294 1.849745 4.632018 -17.827659 -7.983168 -20.308777 -2.884401 -0.156674 15.607353 0.116097 -0.984441 -5.348532 0.048300 0.000001 -10.936100 11.299784 -2.504876 -1.302322 4.092634 -11.740769 -20.824569 -1.644502 -4.076509 65.647834 -2.831749 -16.002430 7.449493 -4.010199 0.000000 -34.250600
-6.795647 17.148077 -1.543807 138.184304 87.512099 146.629408 -9.375967 1.858441 4.514203 -17.850940 -7.564425 -19.539901 -2.892458 -0.206967 15.120392 0.124429 -0.944264 -5.487788 0.045300 -0.000000 -11.361200 11.249643 -2.379567 -1.196282 4.096000 -11.085451 -22.080401 -1.607143 -4.110052 65.848793 -2.770139 -15.641561 5.274117 -3.426300 -0.000000 -32.309300
-6.660738 17.165631 -1.556493 133.538117 87.709018 141.992494 -9.422023 1.874637 4.392053 -17.912238 -7.124632 -18.714025 -2.910553 -0.262619 14.529489 0.126406 -0.941938 -5.594775 0.041800 0.000000 -11.641100 11.197207 -2.247091 -1.086996 4.059753 -10.472336 -23.286698 -1.547359 -4.123682 65.772962 -2.662813 -14.938147 3.496187 -2.873600 -0.000000 -31.431000
-6.526387 17.182024 -1.567784 128.012052 87.862940 136.477795 -9.461827 1.899652 4.266494 -18.004267 -6.649016 -17.859274 -2.937817 -0.321686 13.865404 0.120251 -0.995060 -5.676750 0.037400 -0.000001 -11.745900 11.142068 -2.108039 -0.973237 4.004850 -9.906974 -24.456653 -1.467927 -4.117708 65.435421 -2.520009 -13.985577 2.085809 -2.387000 0.000000 -31.534000
-6.392489 17.197242 -1.577895 121.804078 87.974009 130.281378 -9.495008 1.933207 4.137600 -18.120718 -6.139540 -16.975108 -2.972357 -0.383732 13.131180 0.106831 -1.095880 -5.726838 0.032800 0.000000 -11.710600 11.084955 -1.962508 -0.857062 3.941210 -9.388949 -25.586827 -1.370860 -4.093898 64.849183 -2.352090 -12.864930 0.983149 -1.974299 0.000000 -32.397000
-6.258775 17.211326 -1.587171 115.309204 88.046952 123.803088 -9.523032 1.974611 4.006897 -18.250035 -5.593449 -16.081595 -3.011923 -0.447561 12.347919 0.086066 -1.245655 -5.741943 0.028000 0.000000 -11.575500 11.025303 -1.812996 -0.735586 3.885211 -8.907692 -26.683354 -1.257228 -4.054126 64.029932 -2.169498 -11.649247 0.113177 -1.629500 0.000000 -33.723901
-6.125005 17.224346 -1.595902 108.864293 88.089176 117.385370 -9.546961 2.022359 3.876121 -18.382467 -5.015989 -15.197113 -3.054259 -0.512099 11.534817 0.058687 -1.439210 -5.718908 0.023200 0.000000 -11.397400 10.962464 -1.661828 -0.605940 3.846632 -8.448055 -27.750206 -1.127525 -4.000366 62.992880 -1.980890 -10.395656 -0.599889 -1.340600 -0.000001 -35.215900
-5.991079 17.236438 -1.604331 102.690991 88.108066 111.256306 -9.568246 2.074687 3.747558 -18.509579 -4.417130 -14.340079 -3.097286 -0.576103 10.712518 0.025726 -1.669239 -5.655790 0.018400 -0.000000 -11.235901 10.895162 -1.511405 -0.464125 3.830307 -7.989732 -28.790143 -0.982344 -3.934020 61.752102 -1.793257 -9.148706 -1.218268 -1.097400 0.000000 -36.633200
-5.856877 17.247718 -1.612632 96.897258 88.110868 105.531076 -9.588334 2.129632 3.623817 -18.624709 -3.810862 -13.529756 -3.139228 -0.638278 9.902772 -0.011458 -1.926867 -5.554472 0.013300 0.000000 -11.145400 10.821802 -1.363922 -0.305417 3.836511 -7.508905 -29.804426 -0.822743 -3.855735 60.319774 -1.611849 -7.941319 -1.783547 -0.892401 -0.000000 -37.826801
-5.722516 17.258269 -1.620782 91.440619 88.100828 100.171281 -9.606531 2.184987 3.506445 -18.725964 -3.219613 -12.772728 -3.178697 -0.697737 9.117847 -0.050548 -2.194807 -5.417691 0.007799 -0.000000 -11.166100 10.742251 -1.219832 -0.127548 3.856427 -6.983779 -30.787608 -0.650631 -3.765810 58.706360 -1.440347 -6.796607 -2.315921 -0.721200 0.000000 -38.741801
-5.588109 17.268144 -1.628784 86.331518 88.080135 95.191684 -9.622551 2.238739 3.397414 -18.812119 -2.664787 -12.076593 -3.214665 -0.753647 8.372559 -0.089609 -2.459796 -5.253404 0.001800 -0.000000 -11.320000 10.656001 -1.080093 0.072449 3.880762 -6.394769 -31.735262 -0.468808 -3.663992 56.921310 -1.282073 -5.735923 -2.815344 -0.581699 -0.000000 -39.404200
-5.453949 17.277263 -1.636449 81.571765 88.048205 90.593924 -9.634602 2.288707 3.297075 -18.885581 -2.169981 -11.436755 -3.246433 -0.805671 7.672503 -0.126328 -2.704325 -5.070066 -0.004800 0.000001 -11.607600 10.563777 -0.944555 0.294381 3.895278 -5.729975 -32.638097 -0.280977 -3.550090 54.974525 -1.140106 -4.780091 -3.270270 -0.472200 -0.000000 -39.889400
-5.320316 17.285530 -1.643564 77.249760 88.005145 86.464411 -9.642004 2.333499 3.204842 -18.949060 -1.747381 -10.851485 -3.274013 -0.853111 7.030111 -0.159722 -2.923430 -4.881406 -0.011800 0.000000 -11.998300 10.465954 -0.813912 0.538029 3.888077 -4.984699 -33.488262 -0.091551 -3.423638 52.877393 -1.018122 -3.954536 -3.663732 -0.391001 -0.000000 -40.291699
-5.187595 17.292729 -1.649878 73.464154 87.948638 82.894295 -9.641535 2.371166 3.119161 -19.008910 -1.419898 -10.295667 -3.296981 -0.896588 6.434239 -0.187381 -3.096072 -4.693719 -0.018500 0.000000 -12.466700 10.364625 -0.687115 0.797088 3.844728 -4.168560 -34.271795 0.094954 -3.284702 50.643012 -0.919744 -3.284299 -3.982162 -0.336201 0.000000 -40.705900
-5.056147 17.298657 -1.655150 70.375226 87.880226 80.035129 -9.632941 2.401503 3.037278 -19.069080 -1.184333 -9.760625 -3.316171 -0.935476 5.893886 -0.209680 -3.228771 -4.521236 -0.024500 -0.000000 -12.954100 10.260744 -0.564822 1.067328 3.759845 -3.298186 -34.981309 0.274143 -3.132763 48.287073 -0.849550 -2.798462 -4.219837 -0.306200 -0.000000 -41.185499
